<!-- Generated by IcoMoon.io -->
<svg version="1.1" xmlns="http://www.w3.org/2000/svg" width="67" height="32" viewBox="0 0 67 32">
<title>group-5</title>
<path fill="#8e8f99" d="M33.799 15.249c-0.316-0.42-0.467-0.917-0.431-1.417v-2.054c0-0.63 0.143-1.108 0.428-1.435s0.776-0.49 1.472-0.489c0.654 0 1.118 0.139 1.392 0.418 0.299 0.355 0.445 0.79 0.412 1.229v0.483h-1.169v-0.489c0.004-0.16-0.007-0.32-0.034-0.478-0.017-0.108-0.076-0.209-0.167-0.284-0.12-0.082-0.271-0.121-0.424-0.111-0.16-0.010-0.319 0.031-0.445 0.117-0.102 0.084-0.17 0.194-0.194 0.313-0.034 0.168-0.049 0.338-0.046 0.508v2.492c-0.018 0.24 0.033 0.481 0.15 0.7 0.058 0.074 0.139 0.133 0.233 0.17s0.199 0.050 0.302 0.039c0.15 0.011 0.299-0.030 0.414-0.113 0.095-0.082 0.157-0.188 0.174-0.303 0.027-0.165 0.039-0.332 0.036-0.499v-0.506h1.169v0.462c0.033 0.457-0.109 0.911-0.404 1.291-0.269 0.305-0.726 0.458-1.399 0.458s-1.181-0.163-1.47-0.501z"></path>
<path fill="#8e8f99" d="M38.668 15.269c-0.295-0.32-0.443-0.786-0.443-1.402v-2.16c0-0.61 0.148-1.072 0.443-1.385s0.789-0.469 1.482-0.468c0.688 0 1.179 0.156 1.474 0.468 0.295 0.313 0.446 0.775 0.446 1.385v2.16c0 0.61-0.15 1.078-0.45 1.4s-0.789 0.483-1.47 0.483-1.184-0.163-1.482-0.48zM40.694 14.751c0.106-0.2 0.154-0.42 0.14-0.639v-2.645c0.014-0.216-0.034-0.431-0.138-0.627-0.059-0.076-0.142-0.135-0.239-0.172s-0.204-0.050-0.308-0.037c-0.105-0.013-0.212 0-0.309 0.037s-0.18 0.096-0.24 0.172c-0.107 0.196-0.155 0.411-0.14 0.627v2.658c-0.015 0.22 0.033 0.439 0.14 0.639 0.068 0.067 0.152 0.121 0.247 0.158s0.197 0.056 0.3 0.056 0.206-0.019 0.3-0.056c0.094-0.037 0.178-0.091 0.247-0.158v-0.013z"></path>
<path fill="#8e8f99" d="M43.476 9.917h1.259l0.947 3.986 0.968-3.986h1.225l0.123 5.753h-0.905l-0.097-3.998-0.935 3.998h-0.726l-0.968-4.013-0.090 4.013h-0.915l0.114-5.753z"></path>
<path fill="#8e8f99" d="M49.41 9.917h1.961c1.13 0 1.695 0.545 1.695 1.634 0 1.043-0.595 1.564-1.784 1.563h-0.668v2.557h-1.211l0.007-5.753zM51.085 12.376c0.12 0.013 0.241 0.004 0.356-0.028s0.221-0.084 0.31-0.154c0.139-0.194 0.2-0.422 0.174-0.65 0.006-0.175-0.013-0.351-0.058-0.522-0.017-0.057-0.048-0.111-0.089-0.158s-0.094-0.086-0.153-0.116c-0.168-0.070-0.354-0.101-0.54-0.092h-0.47v1.719h0.47z"></path>
<path fill="#8e8f99" d="M54.812 9.917h1.3l1.334 5.753h-1.128l-0.264-1.327h-1.16l-0.271 1.327h-1.145l1.334-5.753zM55.923 13.677l-0.453-2.415-0.453 2.415h0.906z"></path>
<path fill="#8e8f99" d="M58.523 9.917h0.847l1.622 3.282v-3.282h1.005v5.753h-0.806l-1.632-3.426v3.426h-1.039l0.002-5.753z"></path>
<path fill="#8e8f99" d="M64.351 13.477l-1.349-3.552h1.135l0.823 2.281 0.772-2.281h1.111l-1.332 3.552v2.194h-1.162v-2.194z"></path>
<path fill="#8e8f99" d="M35.668 18.186v0.301h-0.988v2.338h-0.414v-2.338h-0.993v-0.301h2.394z"></path>
<path fill="#8e8f99" d="M38.764 20.824h-0.32c-0.032 0.002-0.064-0.007-0.090-0.025-0.024-0.015-0.043-0.036-0.053-0.061l-0.286-0.627h-1.37l-0.286 0.627c-0.008 0.026-0.023 0.050-0.044 0.071-0.025 0.017-0.057 0.026-0.090 0.025h-0.32l1.211-2.639h0.421l1.225 2.628zM36.76 19.845h1.143l-0.484-1.074c-0.036-0.081-0.066-0.164-0.090-0.249-0.017 0.050-0.031 0.098-0.046 0.14l-0.044 0.111-0.479 1.072z"></path>
<path fill="#8e8f99" d="M40.851 20.565c0.076 0.003 0.152 0.003 0.228 0 0.065-0.006 0.13-0.016 0.194-0.031 0.059-0.013 0.118-0.029 0.174-0.048 0.053-0.019 0.107-0.042 0.162-0.065v-0.593h-0.484c-0.012 0.001-0.024-0.001-0.035-0.005s-0.021-0.009-0.030-0.016c-0.008-0.006-0.014-0.013-0.018-0.022s-0.006-0.017-0.006-0.026v-0.203h0.939v1.011c-0.077 0.047-0.158 0.089-0.242 0.125-0.086 0.037-0.176 0.067-0.269 0.090-0.099 0.025-0.2 0.043-0.303 0.054-0.117 0.011-0.235 0.017-0.353 0.017-0.209 0.002-0.416-0.032-0.61-0.098-0.181-0.063-0.346-0.157-0.484-0.276-0.135-0.12-0.241-0.262-0.312-0.418-0.076-0.175-0.114-0.361-0.111-0.547-0.003-0.188 0.034-0.375 0.109-0.552 0.070-0.156 0.176-0.299 0.312-0.418 0.138-0.119 0.303-0.212 0.484-0.274 0.207-0.067 0.427-0.101 0.649-0.098 0.113-0 0.225 0.008 0.337 0.023 0.098 0.014 0.195 0.036 0.288 0.067 0.085 0.027 0.166 0.062 0.242 0.104 0.074 0.041 0.145 0.087 0.211 0.138l-0.116 0.163c-0.009 0.015-0.023 0.027-0.039 0.036s-0.036 0.014-0.055 0.014c-0.027-0.001-0.053-0.008-0.075-0.021-0.036-0.017-0.075-0.038-0.119-0.063-0.051-0.028-0.106-0.052-0.162-0.071-0.072-0.025-0.147-0.045-0.223-0.059-0.101-0.016-0.204-0.024-0.307-0.023-0.16-0.002-0.318 0.023-0.467 0.073-0.135 0.047-0.256 0.118-0.356 0.209-0.1 0.095-0.177 0.206-0.225 0.328-0.108 0.286-0.108 0.594 0 0.88 0.053 0.124 0.135 0.237 0.242 0.332 0.099 0.091 0.22 0.162 0.353 0.209 0.154 0.046 0.317 0.063 0.479 0.052z"></path>
<path fill="#8e8f99" d="M44.711 20.523h1.322v0.301h-1.726v-2.639h0.414l-0.010 2.338z"></path>
<path fill="#8e8f99" d="M47.408 20.824h-0.414v-2.639h0.414v2.639z"></path>
<path fill="#8e8f99" d="M48.948 18.198c0.025 0.012 0.046 0.028 0.063 0.048l1.77 1.989c-0.002-0.031-0.002-0.063 0-0.094 0-0.029 0-0.059 0-0.086v-1.88h0.361v2.649h-0.208c-0.031 0.002-0.062-0.003-0.090-0.015-0.025-0.013-0.047-0.030-0.065-0.050l-1.767-1.987c0 0.031 0 0.061 0 0.090s0 0.056 0 0.081v1.88h-0.346v-2.639h0.215c0.023 0 0.047 0.004 0.068 0.012z"></path>
<path fill="#8e8f99" d="M54.189 18.186v0.29h-1.467v0.871h1.189v0.28h-1.189v0.9h1.467v0.29h-1.893v-2.632h1.893z"></path>
<path fill="#8e8f99" d="M10.805 1.891l18.384 4.504v15.784l-18.384-4.502v-15.786zM9.626 0.545v17.898l20.739 5.083v-17.896l-20.739-5.085z"></path>
<path fill="#8e8f99" d="M20.742 31.834l-20.742-5.087v-17.896l20.742 5.085v17.898z"></path>
<path fill="#8e8f99" d="M9.97 1.688l18.144 4.448-7.716 6.66-18.146-4.45 7.718-6.658zM9.626 0.545l-9.626 8.306 20.742 5.085 9.624-8.306-20.739-5.085z"></path>
<path fill="#8e8f99" d="M21.909 30.827l8.457-7.299-8.457-2.074v9.374z"></path>
</svg>
