<!-- Generated by IcoMoon.io -->
<svg version="1.1" xmlns="http://www.w3.org/2000/svg" width="66" height="32" viewBox="0 0 66 32">
<title>group-3</title>
<path fill="#8e8f99" d="M10.207 9.77h-0.002c-1.862 0-3.371 1.361-3.371 3.040v0.002c0 1.679 1.509 3.040 3.371 3.040h0.002c1.862 0 3.371-1.361 3.371-3.040v-0.002c0-1.679-1.509-3.040-3.371-3.040z"></path>
<path fill="#8e8f99" d="M35.092 8.798c-0.005-2.332-1.035-4.567-2.863-6.215s-4.307-2.578-6.893-2.583v0c-2.587 0.004-5.066 0.932-6.896 2.582s-2.86 3.884-2.865 6.217v12.858c0 0 19.515-1.96 19.517-12.856v-0.002z"></path>
<path fill="#8e8f99" d="M0 25.877c0.005 1.622 0.721 3.177 1.994 4.325s2.996 1.794 4.796 1.799c1.799-0.005 3.523-0.651 4.795-1.798s1.989-2.701 1.994-4.323v-8.947c0 0-13.579 1.365-13.579 8.945zM6.789 27.48c-0.352 0-0.695-0.094-0.988-0.27s-0.52-0.426-0.655-0.719-0.17-0.615-0.101-0.926c0.069-0.311 0.238-0.597 0.487-0.821s0.565-0.377 0.91-0.439c0.345-0.062 0.702-0.030 1.027 0.091s0.603 0.327 0.798 0.59c0.195 0.264 0.3 0.573 0.3 0.891 0.001 0.211-0.044 0.42-0.133 0.615s-0.22 0.373-0.385 0.522c-0.165 0.149-0.362 0.268-0.578 0.349s-0.448 0.123-0.682 0.123v-0.006z"></path>
<path fill="#8e8f99" d="M19.207 24.597v3.329h-0.686v-3.329h0.686zM20.533 26.019v0.535h-1.514v-0.535h1.514zM20.693 24.597v0.537h-1.674v-0.537h1.674zM23.826 26.184v0.158c0 0.253-0.034 0.48-0.103 0.681s-0.165 0.373-0.29 0.515c-0.125 0.14-0.274 0.248-0.448 0.322-0.172 0.075-0.364 0.112-0.574 0.112-0.209 0-0.4-0.037-0.574-0.112-0.172-0.075-0.322-0.182-0.448-0.322-0.127-0.142-0.225-0.313-0.295-0.514-0.069-0.201-0.103-0.428-0.103-0.681v-0.158c0-0.255 0.034-0.482 0.103-0.681 0.069-0.201 0.165-0.373 0.29-0.514 0.127-0.142 0.276-0.25 0.448-0.325 0.174-0.075 0.365-0.112 0.574-0.112 0.21 0 0.402 0.037 0.574 0.112 0.174 0.075 0.323 0.183 0.448 0.325 0.127 0.142 0.224 0.313 0.293 0.514 0.070 0.2 0.105 0.427 0.105 0.681zM23.133 26.342v-0.162c0-0.177-0.016-0.332-0.048-0.466s-0.079-0.247-0.142-0.338-0.139-0.16-0.229-0.206c-0.090-0.047-0.193-0.071-0.309-0.071s-0.219 0.024-0.309 0.071c-0.088 0.046-0.164 0.114-0.226 0.206-0.061 0.091-0.107 0.204-0.139 0.338s-0.048 0.29-0.048 0.466v0.162c0 0.175 0.016 0.331 0.048 0.466 0.032 0.134 0.079 0.248 0.142 0.341 0.063 0.091 0.139 0.161 0.229 0.208s0.193 0.071 0.309 0.071c0.116 0 0.219-0.024 0.309-0.071s0.165-0.117 0.226-0.208c0.061-0.093 0.107-0.207 0.139-0.341 0.032-0.136 0.048-0.291 0.048-0.466zM26.053 27.055c0-0.059-0.009-0.113-0.027-0.16-0.017-0.049-0.049-0.093-0.096-0.133-0.047-0.041-0.114-0.082-0.199-0.121s-0.196-0.081-0.332-0.123c-0.151-0.049-0.294-0.104-0.43-0.165-0.134-0.061-0.253-0.132-0.357-0.213-0.102-0.082-0.183-0.178-0.242-0.286-0.058-0.108-0.087-0.234-0.087-0.377 0-0.139 0.031-0.264 0.091-0.377 0.061-0.114 0.146-0.212 0.256-0.293 0.11-0.082 0.239-0.146 0.389-0.19 0.151-0.044 0.316-0.066 0.496-0.066 0.245 0 0.46 0.044 0.642 0.133s0.325 0.21 0.425 0.364c0.102 0.154 0.153 0.33 0.153 0.528h-0.681c0-0.098-0.021-0.183-0.062-0.256-0.040-0.075-0.101-0.133-0.183-0.176-0.081-0.043-0.183-0.064-0.306-0.064-0.119 0-0.218 0.018-0.297 0.055-0.079 0.035-0.139 0.083-0.178 0.144-0.040 0.059-0.059 0.127-0.059 0.201 0 0.056 0.014 0.107 0.041 0.153 0.029 0.046 0.072 0.088 0.128 0.128s0.126 0.077 0.208 0.112c0.082 0.035 0.178 0.069 0.286 0.103 0.181 0.055 0.341 0.117 0.478 0.185 0.139 0.069 0.255 0.146 0.348 0.231s0.163 0.182 0.21 0.29c0.047 0.108 0.071 0.231 0.071 0.368 0 0.145-0.028 0.274-0.085 0.389s-0.138 0.211-0.245 0.29c-0.107 0.079-0.234 0.139-0.382 0.181s-0.313 0.062-0.496 0.062c-0.165 0-0.327-0.021-0.487-0.064-0.16-0.044-0.306-0.111-0.437-0.199-0.13-0.088-0.233-0.201-0.311-0.338s-0.117-0.3-0.117-0.487h0.688c0 0.104 0.016 0.191 0.048 0.263s0.077 0.13 0.135 0.174c0.059 0.044 0.13 0.076 0.21 0.096 0.082 0.020 0.172 0.030 0.27 0.030 0.119 0 0.216-0.017 0.293-0.050 0.078-0.034 0.135-0.080 0.171-0.14 0.038-0.059 0.057-0.127 0.057-0.201zM28.694 24.597v3.329h-0.684v-3.329h0.684zM29.718 24.597v0.537h-2.716v-0.537h2.716zM32.343 27.391v0.535h-1.772v-0.535h1.772zM30.795 24.597v3.329h-0.686v-3.329h0.686zM32.112 25.953v0.521h-1.541v-0.521h1.541zM32.341 24.597v0.537h-1.77v-0.537h1.77zM32.743 24.597h1.242c0.255 0 0.473 0.038 0.656 0.114 0.184 0.076 0.326 0.189 0.425 0.338s0.149 0.333 0.149 0.551c0 0.178-0.030 0.332-0.091 0.46-0.059 0.127-0.144 0.233-0.254 0.318-0.108 0.084-0.235 0.151-0.382 0.201l-0.217 0.114h-1.079l-0.005-0.535h0.803c0.12 0 0.22-0.021 0.3-0.064s0.139-0.102 0.178-0.178c0.041-0.076 0.062-0.165 0.062-0.265 0-0.107-0.020-0.199-0.059-0.277s-0.1-0.137-0.181-0.178-0.182-0.062-0.304-0.062h-0.556v2.792h-0.686v-3.329zM34.605 27.926l-0.759-1.484 0.725-0.005 0.768 1.457v0.032h-0.734zM38.206 26.74h-0.848v-0.535h0.848c0.131 0 0.238-0.021 0.32-0.064 0.082-0.044 0.143-0.105 0.181-0.183s0.057-0.165 0.057-0.263c0-0.099-0.019-0.191-0.057-0.277s-0.098-0.154-0.181-0.206-0.189-0.078-0.32-0.078h-0.611v2.792h-0.686v-3.329h1.297c0.261 0 0.484 0.047 0.67 0.142 0.187 0.093 0.331 0.222 0.43 0.386s0.149 0.353 0.149 0.565c0 0.215-0.050 0.401-0.149 0.558s-0.242 0.278-0.43 0.364c-0.186 0.085-0.409 0.128-0.67 0.128zM42.162 27.391v0.535h-1.772v-0.535h1.772zM40.614 24.597v3.329h-0.686v-3.329h0.686zM41.931 25.953v0.521h-1.541v-0.521h1.541zM42.16 24.597v0.537h-1.77v-0.537h1.77zM44.096 24.597v3.329h-0.684v-3.329h0.684zM45.121 24.597v0.537h-2.716v-0.537h2.716zM47.746 27.391v0.535h-1.772v-0.535h1.772zM46.198 24.597v3.329h-0.686v-3.329h0.686zM47.515 25.953v0.521h-1.541v-0.521h1.541zM47.744 24.597v0.537h-1.77v-0.537h1.77zM48.146 24.597h1.242c0.255 0 0.473 0.038 0.656 0.114 0.184 0.076 0.326 0.189 0.425 0.338s0.149 0.333 0.149 0.551c0 0.178-0.031 0.332-0.091 0.46-0.059 0.127-0.144 0.233-0.254 0.318-0.108 0.084-0.235 0.151-0.382 0.201l-0.217 0.114h-1.079l-0.005-0.535h0.803c0.12 0 0.22-0.021 0.3-0.064s0.139-0.102 0.178-0.178c0.041-0.076 0.062-0.165 0.062-0.265 0-0.107-0.020-0.199-0.059-0.277s-0.1-0.137-0.181-0.178c-0.081-0.041-0.182-0.062-0.304-0.062h-0.556v2.792h-0.686v-3.329zM50.007 27.926l-0.759-1.484 0.725-0.005 0.768 1.457v0.032h-0.734zM52.879 27.055c0-0.059-0.009-0.113-0.027-0.16-0.017-0.049-0.049-0.093-0.096-0.133-0.047-0.041-0.114-0.082-0.199-0.121s-0.196-0.081-0.332-0.123c-0.151-0.049-0.294-0.104-0.43-0.165-0.134-0.061-0.253-0.132-0.357-0.213-0.102-0.082-0.183-0.178-0.242-0.286-0.058-0.108-0.087-0.234-0.087-0.377 0-0.139 0.030-0.264 0.091-0.377 0.061-0.114 0.146-0.212 0.256-0.293 0.11-0.082 0.239-0.146 0.389-0.19 0.151-0.044 0.316-0.066 0.496-0.066 0.245 0 0.46 0.044 0.642 0.133s0.325 0.21 0.425 0.364c0.102 0.154 0.153 0.33 0.153 0.528h-0.681c0-0.098-0.021-0.183-0.062-0.256-0.040-0.075-0.101-0.133-0.183-0.176-0.081-0.043-0.183-0.064-0.306-0.064-0.119 0-0.218 0.018-0.297 0.055-0.079 0.035-0.139 0.083-0.178 0.144-0.040 0.059-0.059 0.127-0.059 0.201 0 0.056 0.014 0.107 0.041 0.153 0.029 0.046 0.072 0.088 0.128 0.128s0.126 0.077 0.208 0.112c0.082 0.035 0.178 0.069 0.286 0.103 0.181 0.055 0.341 0.117 0.478 0.185 0.139 0.069 0.255 0.146 0.348 0.231s0.163 0.182 0.21 0.29c0.047 0.108 0.071 0.231 0.071 0.368 0 0.145-0.028 0.274-0.085 0.389s-0.138 0.211-0.245 0.29c-0.107 0.079-0.234 0.139-0.382 0.181s-0.313 0.062-0.496 0.062c-0.165 0-0.327-0.021-0.487-0.064-0.16-0.044-0.306-0.111-0.437-0.199-0.13-0.088-0.233-0.201-0.311-0.338s-0.117-0.3-0.117-0.487h0.688c0 0.104 0.016 0.191 0.048 0.263s0.077 0.13 0.135 0.174c0.059 0.044 0.13 0.076 0.21 0.096 0.082 0.020 0.172 0.030 0.27 0.030 0.119 0 0.216-0.017 0.293-0.050 0.078-0.034 0.135-0.080 0.171-0.14 0.038-0.059 0.057-0.127 0.057-0.201z"></path>
</svg>
