<!-- Generated by IcoMoon.io -->
<svg version="1.1" xmlns="http://www.w3.org/2000/svg" width="34" height="32" viewBox="0 0 34 32">
<title>group-2</title>
<path fill="#8e8f99" d="M5.315 31.394c0.013 0 0.025 0.003 0.036 0.007s0.022 0.011 0.030 0.019l0.172 0.162c-0.134 0.131-0.299 0.236-0.485 0.307-0.217 0.078-0.452 0.116-0.687 0.11-0.221 0.004-0.441-0.031-0.646-0.103-0.185-0.066-0.351-0.165-0.487-0.291-0.139-0.13-0.246-0.283-0.315-0.449-0.075-0.185-0.112-0.38-0.11-0.576-0.003-0.197 0.037-0.393 0.119-0.578 0.075-0.167 0.189-0.32 0.334-0.449 0.147-0.127 0.323-0.226 0.517-0.293 0.212-0.070 0.438-0.105 0.666-0.103 0.211-0.004 0.422 0.028 0.618 0.094 0.171 0.063 0.327 0.151 0.463 0.26l-0.144 0.173c-0.010 0.012-0.022 0.023-0.037 0.031-0.017 0.010-0.038 0.015-0.058 0.013-0.022-0.001-0.044-0.008-0.062-0.018l-0.078-0.046-0.108-0.059c-0.046-0.022-0.095-0.041-0.144-0.057-0.064-0.020-0.129-0.035-0.196-0.046-0.085-0.013-0.17-0.019-0.256-0.018-0.164-0.002-0.327 0.025-0.478 0.077-0.142 0.049-0.269 0.123-0.375 0.217-0.107 0.1-0.19 0.218-0.243 0.346-0.061 0.147-0.091 0.301-0.088 0.457-0.003 0.158 0.027 0.315 0.088 0.464 0.053 0.127 0.134 0.244 0.239 0.344 0.099 0.093 0.221 0.166 0.358 0.214 0.141 0.050 0.292 0.075 0.444 0.074 0.088 0.001 0.176-0.004 0.263-0.015 0.142-0.015 0.278-0.057 0.399-0.123 0.060-0.034 0.117-0.072 0.17-0.114 0.022-0.018 0.051-0.029 0.082-0.029z"></path>
<path fill="#8e8f99" d="M10.292 30.58c0.003 0.195-0.037 0.389-0.116 0.573-0.070 0.166-0.181 0.318-0.325 0.445s-0.317 0.226-0.509 0.292c-0.422 0.137-0.888 0.137-1.31 0-0.191-0.067-0.363-0.166-0.506-0.293-0.144-0.129-0.255-0.282-0.327-0.449-0.155-0.371-0.155-0.776 0-1.147 0.074-0.167 0.185-0.32 0.327-0.451 0.144-0.123 0.317-0.218 0.506-0.282 0.421-0.14 0.889-0.14 1.31 0 0.191 0.066 0.365 0.166 0.508 0.293 0.142 0.128 0.252 0.279 0.325 0.444 0.080 0.184 0.119 0.38 0.116 0.576zM9.839 30.58c0.003-0.156-0.024-0.312-0.082-0.46-0.048-0.127-0.127-0.244-0.231-0.344-0.101-0.095-0.225-0.169-0.364-0.217-0.306-0.101-0.646-0.101-0.952 0-0.139 0.048-0.263 0.123-0.364 0.217-0.105 0.099-0.185 0.217-0.233 0.344-0.11 0.3-0.11 0.621 0 0.92 0.049 0.127 0.128 0.245 0.233 0.344 0.101 0.094 0.225 0.168 0.364 0.215 0.307 0.098 0.645 0.098 0.952 0 0.139-0.048 0.263-0.121 0.364-0.215 0.103-0.1 0.182-0.217 0.231-0.344 0.058-0.148 0.085-0.304 0.082-0.46z"></path>
<path fill="#8e8f99" d="M13.687 31.062l0.045 0.103c0.017-0.037 0.032-0.070 0.050-0.103 0.016-0.035 0.035-0.068 0.056-0.101l1.101-1.71c0.022-0.029 0.041-0.048 0.063-0.053 0.029-0.008 0.060-0.011 0.090-0.009h0.325v2.781h-0.386v-2.045c0-0.026 0-0.055 0-0.087-0.002-0.032-0.002-0.064 0-0.096l-1.107 1.734c-0.014 0.026-0.037 0.048-0.065 0.063s-0.061 0.023-0.095 0.023h-0.062c-0.034 0-0.066-0.008-0.095-0.023s-0.051-0.037-0.065-0.064l-1.14-1.745c0 0.033 0 0.066 0 0.099s0 0.063 0 0.088v2.045h-0.373v-2.776h0.325c0.031-0.001 0.061 0.002 0.090 0.009 0.027 0.011 0.048 0.030 0.060 0.053l1.125 1.712c0.022 0.032 0.041 0.065 0.056 0.099z"></path>
<path fill="#8e8f99" d="M17.83 30.924v1.042h-0.431v-2.777h0.961c0.181-0.003 0.362 0.017 0.536 0.061 0.139 0.034 0.269 0.093 0.379 0.173 0.096 0.075 0.169 0.169 0.215 0.272 0.051 0.113 0.076 0.234 0.073 0.355 0.002 0.122-0.025 0.243-0.080 0.355-0.052 0.107-0.131 0.202-0.233 0.278-0.111 0.084-0.24 0.146-0.381 0.184-0.168 0.046-0.343 0.067-0.519 0.064l-0.521-0.007zM17.83 30.626h0.521c0.113 0.001 0.226-0.013 0.334-0.042 0.089-0.026 0.171-0.066 0.241-0.12 0.065-0.051 0.115-0.114 0.146-0.184 0.035-0.074 0.053-0.154 0.052-0.234 0.005-0.077-0.010-0.154-0.043-0.226s-0.085-0.137-0.151-0.19c-0.165-0.11-0.371-0.163-0.579-0.149h-0.521v1.145z"></path>
<path fill="#8e8f99" d="M23.621 31.97h-0.34c-0.034 0.001-0.068-0.008-0.095-0.026-0.024-0.017-0.044-0.039-0.056-0.064l-0.293-0.672h-1.471l-0.304 0.672c-0.011 0.025-0.030 0.046-0.054 0.063-0.027 0.019-0.062 0.029-0.097 0.028h-0.34l1.293-2.782h0.448l1.31 2.782zM21.488 30.937h1.215l-0.513-1.132c-0.039-0.085-0.072-0.172-0.097-0.261l-0.050 0.145c-0.015 0.044-0.032 0.085-0.047 0.118l-0.509 1.13z"></path>
<path fill="#8e8f99" d="M25.483 29.201c0.026 0.012 0.048 0.029 0.065 0.050l1.885 2.097c0-0.033 0-0.066 0-0.098s0-0.063 0-0.092v-1.97h0.386v2.782h-0.215c-0.031 0.001-0.061-0.005-0.088-0.017-0.027-0.013-0.050-0.031-0.069-0.052l-1.883-2.095c0.002 0.032 0.002 0.064 0 0.096 0 0.031 0 0.059 0 0.085v1.983h-0.386v-2.782h0.228c0.027-0.001 0.053 0.004 0.078 0.013z"></path>
<path fill="#8e8f99" d="M30.993 30.863v1.104h-0.431v-1.104l-1.191-1.675h0.386c0.033-0.002 0.066 0.007 0.093 0.024 0.023 0.018 0.043 0.039 0.058 0.063l0.745 1.081c0.030 0.046 0.056 0.088 0.078 0.129s0.039 0.079 0.054 0.118l0.056-0.12c0.021-0.044 0.045-0.086 0.073-0.127l0.735-1.088c0.015-0.022 0.034-0.042 0.056-0.059 0.026-0.019 0.059-0.029 0.093-0.028h0.39l-1.194 1.683z"></path>
<path fill="#8e8f99" d="M13.474 24.521c0.187 0.020 0.377 0.037 0.569 0.052 2.907-1.111 5.366-2.93 7.070-5.228s2.577-4.975 2.511-7.696l-3.204-2.737c0.651 2.896 0.347 5.89-0.88 8.647s-3.327 5.167-6.066 6.962z"></path>
<path fill="#8e8f99" d="M12.33 24.393l0.086 0.015c2.927-1.789 5.158-4.286 6.406-7.17s1.454-6.021 0.592-9.006l-4.563-3.899c1.846 3.205 2.589 6.791 2.142 10.342s-2.063 6.921-4.663 9.718z"></path>
<path fill="#8e8f99" d="M27.805 14.862c-0.775 2.989-2.658 5.685-5.369 7.687-0.792 0.588-1.646 1.112-2.551 1.565 2.207-0.554 4.236-1.534 5.93-2.865s3.008-2.975 3.84-4.808l-1.851-1.579z"></path>
<path fill="#8e8f99" d="M27.079 14.422l-2.635-2.251c-0.050 2.567-0.904 5.075-2.473 7.264s-3.795 3.98-6.448 5.185h0.013c0.591-0 1.182-0.030 1.769-0.090 2.479-0.865 4.669-2.24 6.375-4.004s2.874-3.861 3.4-6.104z"></path>
<path fill="#8e8f99" d="M12.711 2.689l-3.143-2.689c-2.81 0.928-5.227 2.559-6.934 4.679s-2.625 4.632-2.634 7.206v0c0.011 2.844 1.131 5.604 3.184 7.843s4.921 3.829 8.151 4.518c2.883-3.001 4.571-6.709 4.818-10.586s-0.958-7.72-3.442-10.971z"></path>
<path fill="#8e8f99" d="M34.341 14.008c-0.011-3.374-1.585-6.608-4.378-8.994s-6.577-3.731-10.526-3.74c-1.825-0.002-3.634 0.286-5.337 0.849l19.245 16.443c0.659-1.454 0.997-2.999 0.995-4.558z"></path>
</svg>
